<?xml version="1.0" encoding="UTF-8"?>
<svg data-bbox="0 0.498 257.503 244.342" xmlns:xlink="http://www.w3.org/1999/xlink" xmlns="http://www.w3.org/2000/svg" viewBox="0 0 258 245" data-type="color">
    <g>
        <defs>
            <path id="af79f7a3-25ee-469c-8168-244e2bc80266" d="M0 .498h257.503v244.341H0z"/>
        </defs>
        <g fill-rule="evenodd">
            <mask fill="#ffffff" id="976e3717-f314-47a0-8cfa-8675d305e139">
                <use xlink:href="#af79f7a3-25ee-469c-8168-244e2bc80266"/>
            </mask>
            <path mask="url(#976e3717-f314-47a0-8cfa-8675d305e139)" fill="#FAF9D8" d="m253.437 152.968-2.845-1.178a322 322 0 0 0-33.067-11.621V23.648l-3.289-.859L129.863.787l-1.111-.289-1.111.289L40.14 23.601v116.521A323 323 0 0 0 6.914 151.79L0 154.651l25.893 62.51 4.066-1.683 2.847-1.179a253 253 0 0 1 28.353-9.805 61 61 0 0 0 7.236 5.315l.062.039.064.037 60.229 34.955 2.208-1.278 56.367-32.639.066-.038.063-.039a64 64 0 0 0 8.58-6.438 253 253 0 0 1 28.667 9.891l2.844 1.179 4.065 1.684 25.893-62.51" data-color="1"/>
            <path fill="#507C57" d="m202.886 100.325-6.128-3.218c-20.294-9.64-42.698-14.965-65.52-15.221-24.295-.273-49.061 5.174-72.157 16.431l-4.464 2.125V37.456l74.135-19.332 74.134 19.332zm46.022 55.531a316 316 0 0 0-35.784-12.367V27.048L128.753 5.045 44.54 27.001v116.442a318 318 0 0 0-35.943 12.413l-2.846 1.178 22.524 54.378 2.846-1.179a256 256 0 0 1 31.178-10.619 56 56 0 0 0 8.43 6.465l58.024 33.674 56.367-32.638a59.6 59.6 0 0 0 9.719-7.597 256 256 0 0 1 31.545 10.715l2.846 1.179 22.523-54.378z" data-color="2"/>
            <path fill="#152120" d="M155.24 99.705a99.3 99.3 0 0 0-23.496-3.436l.083 5.753c7.498.136 14.989.843 22.428 2.114 8.466 1.425 16.828 3.611 25.233 6.264-7.384-4.833-15.658-8.334-24.248-10.695" data-color="3"/>
            <path fill="#152120" d="m131.978 112.357.061 4.15c3.84.111 7.678.455 11.507 1.054 4.771.722 9.495 1.865 14.321 3.186-4.086-2.906-8.754-4.971-13.609-6.387a54 54 0 0 0-12.28-2.003" data-color="3"/>
            <path fill="#152120" d="M138.713 131.158c-.078.248-.59.576-1.477.896-.127-.867-3.215-1.572-7.164-1.662l.022-1.218c5.248.126 8.415 1.336 8.619 1.984m-17.544.902c-.9-.322-1.413-.65-1.477-.889.159-.614 3.021-1.743 7.815-1.968l.022 1.216c-3.564.163-6.253.831-6.36 1.641m-34.872 2.775c-10.535.225-21.091.876-31.519 2.827v-3.543a114 114 0 0 1 20.997-4.38c-6.989-.111-14.027.44-20.997 1.616v-3.508a95 95 0 0 1 13.564-3.062 96 96 0 0 0-13.564.605v-24.725c11.566-4.193 23.32-7.545 35.26-9.837 12.112-2.329 24.39-3.53 36.675-3.683l.173 9.109c-8.268.136-16.516 1.284-24.462 3.451-8.589 2.361-16.864 5.862-24.247 10.695 8.405-2.653 16.766-4.839 25.233-6.264a149 149 0 0 1 23.584-2.125l.194 10.296a53.8 53.8 0 0 0-13.782 2.054c-4.855 1.414-9.522 3.481-13.609 6.387 4.827-1.321 9.55-2.465 14.322-3.187a91 91 0 0 1 13.147-1.083l.207 10.965c-4.154.197-9.54 1.13-9.54 3.715 0 2.967 7.084 3.759 11.27 3.759 4.187 0 11.273-.792 11.273-3.759 0-2.757-6.123-3.634-10.349-3.744l.206-10.937h.037l.06-4.17h-.018l1.393-73.895-3.006-.906-3.004.906.82 43.467a164 164 0 0 0-37.471 4.926c-11.965 3.012-23.577 7.399-34.366 13.215V37.738l74.054-19.313 74.054 19.313v62.282c-10.789-5.816-22.4-10.203-34.365-13.215a164 164 0 0 0-36.986-4.916l.076 5.265c12.066.188 24.121 1.386 36.016 3.674 11.939 2.292 23.693 5.644 35.259 9.837v24.725a96 96 0 0 0-13.564-.605 95 95 0 0 1 13.564 3.062v3.508a115.3 115.3 0 0 0-20.996-1.616 114 114 0 0 1 20.996 4.38v3.543c-10.427-1.951-20.983-2.602-31.518-2.827 11.176 1.292 20.438 3.281 31.518 5.969v.02a313 313 0 0 1 10.238 2.665V27.048L128.961 5.1v-.043l-.049-.012-.08.02-.079-.02-.05.012V5.1L44.54 27.048v116.395a311 311 0 0 1 16.558-4.131c8.451-1.94 16.213-3.438 25.199-4.477" data-color="3"/>
            <path fill="#152120" d="M128.752 138.116c-39.603 0-78.256 7.489-114.946 22.266l17.81 42.996c31.014-12.427 63.677-18.726 97.136-18.726 33.46 0 66.122 6.299 97.136 18.726l17.81-42.996c-36.69-14.777-75.344-22.266-114.946-22.266" data-color="3"/>
            <path fill="#152120" d="m178.279 197.715-49.447 28.631-49.447-28.631a52 52 0 0 1-2.386-1.606 253 253 0 0 0-14.205 3.375 59.6 59.6 0 0 0 9.751 7.631l56.158 32.517v.092l.05.029.079-.046.08.046.049-.029v-.092l56.158-32.517a59.6 59.6 0 0 0 9.717-7.598 252 252 0 0 0-14.209-3.382 52 52 0 0 1-2.348 1.58" data-color="3"/>
            <path fill="#FAF9D8" d="M28.495 164.573c.411-.152.819-.297 1.233-.446a259 259 0 0 1 18.21 8.679 267 267 0 0 1 10.1-17.277c.447-.112.902-.222 1.35-.334a1841 1841 0 0 1 9.432 27.406c-1.245.291-2.481.593-3.726.904a1790 1790 0 0 0-7.386-20.531 261 261 0 0 0-8.212 14.711c-.14.041-.282.087-.423.129a257 257 0 0 0-14.777-7.539 1182 1182 0 0 0 5.677 20.854q-1.803.649-3.602 1.322a1177 1177 0 0 1-7.876-27.878" data-color="1"/>
            <path fill="#FAF9D8" d="M91.818 168.435a351 351 0 0 0-3.664-5.593 84 84 0 0 1-1.397-2.181 229 229 0 0 0-1.247-2.141c-.799-1.391-1.302-2.339-1.491-2.86a5 5 0 0 1-.273.043c-.034.562-.188 1.367-.443 2.425-.242.934-.473 1.873-.708 2.802a60 60 0 0 1-.718 2.477 369 369 0 0 0-2.105 6.955 274 274 0 0 1 12.046-1.927m-9.796-17.863q1.21-.2 2.428-.384a360 360 0 0 1 17.233 26.868c-1.412.149-2.812.306-4.219.474a371 371 0 0 0-3.635-5.911 269 269 0 0 0-15.109 2.423 324 324 0 0 0-1.803 6.793 201 201 0 0 0-3.929.823 330 330 0 0 1 9.034-31.086" data-color="1"/>
            <path fill="#FAF9D8" d="M117.613 162.708c3.29-.129 5.718-.598 7.297-1.465 1.946-1.075 2.929-2.835 2.924-5.326-.005-3.226-2.36-5.083-7.107-5.388a36 36 0 0 0-4.217-.054c-2.817.127-5.628.282-8.443.487q.445 6.119.893 12.236c2.884-.209 5.766-.379 8.653-.49m14.649-7.018c-.056 4.288-2.245 7.192-6.45 8.864a321 321 0 0 1 5.768 11.102 234 234 0 0 0-4.509-.007 320 320 0 0 0-5.365-9.958 37 37 0 0 1-4.495.461c-2.668.112-5.334.271-8.001.461.24 3.238.477 6.48.717 9.715-1.294.095-2.582.198-3.873.309q-1.28-14.376-2.537-28.746c4.501-.395 9.012-.682 13.521-.865 4.879-.201 8.537.35 10.932 1.512 2.93 1.409 4.338 3.811 4.292 7.152" data-color="1"/>
            <path fill="#FAF9D8" d="M139.613 146.982q2.211.082 4.424.196l-.749 14.348a261 261 0 0 1 17.839-12.955c1.849.203 3.698.429 5.545.669a260 260 0 0 0-18.912 13.148 246 246 0 0 1 15.821 15.555 251 251 0 0 0-6.094-.74 248 248 0 0 0-14.292-13.927c-.224 4.239-.444 8.477-.671 12.72-1.328-.064-2.654-.131-3.983-.176.359-9.611.72-19.226 1.072-28.838" data-color="1"/>
            <path fill="#FAF9D8" d="M172.231 150.019a293 293 0 0 1 24.345 4.713q-.397 1.665-.797 3.332a286 286 0 0 0-19.831-3.992c-.428 2.563-.851 5.122-1.279 7.679a281 281 0 0 1 17.197 3.395q-.386 1.669-.778 3.335a276 276 0 0 0-16.984-3.353c-.593 3.551-1.192 7.104-1.789 10.654a268 268 0 0 1 18.709 3.784l-.817 3.328a262 262 0 0 0-22.313-4.34c1.459-9.514 2.901-19.019 4.337-28.535" data-color="1"/>
            <path fill="#FAF9D8" d="M212.085 175.291c3.19 1.007 5.684 1.416 7.501 1.142 2.235-.334 3.8-1.648 4.652-3.99 1.11-3.032-.525-5.593-4.968-7.524a39 39 0 0 0-4.022-1.504 288 288 0 0 0-8.231-2.44 5625 5625 0 0 1-3.361 11.806q4.226 1.188 8.429 2.51m16.493-1.523c-1.536 4.009-4.659 5.971-9.274 6.088a302 302 0 0 1 1.674 12.43 249 249 0 0 0-4.33-1.573 296 296 0 0 0-1.677-11.208 38 38 0 0 1-4.462-1.116 269 269 0 0 0-7.795-2.312c-.894 3.121-1.795 6.245-2.694 9.371-1.261-.355-2.528-.7-3.792-1.035q3.79-13.935 7.505-27.883a290 290 0 0 1 13.204 3.824c4.735 1.497 8.066 3.276 9.973 5.201 2.333 2.343 2.867 5.089 1.668 8.213" data-color="1"/>
            <path fill="#152120" d="M98.838 200.675a5.15 5.15 0 0 1-.84-2.856q0-.818.233-1.564.233-.745.667-1.377a5.7 5.7 0 0 1 1.037-1.135q.604-.505 1.342-.858 1.547-.733 3.373-.734 2.687 0 4.445 1.347l-.884 1.086q-1.487-1.163-3.713-1.163-2.015 0-3.415 1.193-1.42 1.2-1.42 2.991 0 1.949 1.402 3.181 1.394 1.231 3.56 1.231 1.641 0 2.932-.864a3.6 3.6 0 0 0 .62-.512v-1.17h-4.172v-1.285h5.744v4.948h-1.572v-1.047q-.968.787-2.591 1.093a8 8 0 0 1-1.385.107q-.791 0-1.606-.179a6.7 6.7 0 0 1-1.512-.52 6.2 6.2 0 0 1-1.272-.823 5 5 0 0 1-.973-1.09" data-color="3"/>
            <path fill="#152120" d="M119.909 194.614a4.1 4.1 0 0 0-1.038 1.324 3.75 3.75 0 0 0-.377 1.682q0 .918.391 1.72.39.804 1.071 1.401 1.453 1.277 3.526 1.277 2.013 0 3.416-1.193 1.42-1.208 1.42-2.991 0-1.208-.681-2.241-.636-.978-1.793-1.576-1.139-.595-2.327-.595-1.191 0-2.07.316-.88.319-1.538.876m-1.164 7.147a5.3 5.3 0 0 1-1.402-1.725q-.515-1.002-.514-2.018 0-1.017.233-1.763a5.1 5.1 0 0 1 .667-1.377 5.7 5.7 0 0 1 1.037-1.135q.603-.505 1.343-.857 1.545-.734 3.373-.734 1.75 0 3.264.704 1.47.686 2.345 1.911.892 1.278.892 2.837 0 2.472-1.937 4.092-1.216 1.017-2.933 1.401-.858.19-1.988.19a7.2 7.2 0 0 1-2.311-.402 6.6 6.6 0 0 1-2.069-1.124" data-color="3"/>
            <path fill="#152120" d="M137.061 192.305h1.572v9.545h6.56v1.284h-8.132" data-color="3"/>
            <path fill="#152120" d="M151.678 192.305h8.132v1.285h-6.56v4.604h5.924v1.285h-5.924v3.655h-1.572" data-color="3"/>
            <path fill="#CBA031" d="m131.871 40.386.652 17.32 32.62-8.265" data-color="4"/>
        </g>
    </g>
</svg>
